<!-- Generated by IcoMoon.io -->
<svg version="1.1" xmlns="http://www.w3.org/2000/svg" width="512" height="512" viewBox="0 0 512 512">
<title></title>
<g id="icomoon-ignore">
</g>
<path fill="none" stroke-linejoin="round" stroke-linecap="round" stroke-miterlimit="10" stroke-width="30" stroke="#ffffff" d="M485.998 51.363v409.173c0 14.065-11.396 25.36-25.36 25.36h-117.258v-178.043h59.757l8.935-69.41h-68.795v-44.357c0-20.125 5.545-33.78 34.397-33.78h36.759v-62.122c-6.367-0.821-28.134-2.771-53.599-2.771-52.981 0-89.33 32.343-89.33 91.794v51.236h-59.963v69.41h59.963v178.146h-220.14c-13.965 0-25.362-11.397-25.362-25.362v-409.274c0-13.965 11.397-25.362 25.362-25.362h409.171c14.068 0 25.463 11.397 25.463 25.362z"></path>
</svg>
